<svg viewBox="0 0 560 400" xmlns="http://www.w3.org/2000/svg" font-family="'Segoe UI', system-ui, sans-serif">
  <defs>
    <filter id="ba1" x="-4%" y="-4%" width="108%" height="112%"><feDropShadow dx="0" dy="2" stdDeviation="6" flood-color="#0a0e1a" flood-opacity="0.06"/></filter>
    <filter id="ba2" x="-4%" y="-6%" width="108%" height="116%"><feDropShadow dx="0" dy="1" stdDeviation="2" flood-color="#0a0e1a" flood-opacity="0.06"/></filter>
  </defs>
  <rect x="10" y="10" width="540" height="380" rx="16" fill="#f5f6f8" filter="url(#ba1)"/>
  <text x="40" y="46" font-size="13" font-weight="700" fill="#0a0e1a" letter-spacing="0.5">BANT QUALIFICATION</text>
  <line x1="40" y1="56" x2="520" y2="56" stroke="#e2e4e8" stroke-width="1"/>

  <!-- Center: Lead Profile Card with BANT scorecard -->
  <rect x="30" y="68" width="310" height="252" rx="10" fill="#fff" filter="url(#ba2)"/>
  <text x="44" y="92" font-size="10" fill="#0a0e1a" font-weight="700">Lead Qualification Scorecard</text>
  <text x="44" y="108" font-size="8" fill="#6b7280">Every lead verified against 4 criteria</text>

  <!-- Budget -->
  <rect x="44" y="122" width="282" height="44" rx="6" fill="#3b5bdb" opacity="0.04"/>
  <rect x="54" y="130" width="28" height="28" rx="6" fill="#3b5bdb" opacity="0.1"/>
  <text x="68" y="149" font-size="14" fill="#3b5bdb" text-anchor="middle" font-weight="700">$</text>
  <text x="92" y="142" font-size="12" fill="#0a0e1a" font-weight="700">Budget</text>
  <text x="92" y="158" font-size="8.5" fill="#6b7280">Confirmed budget allocation for this category</text>
  <rect x="286" y="136" width="32" height="18" rx="9" fill="#3b5bdb" opacity="0.12"/>
  <path d="M296 145 l3 3 l5-5" fill="none" stroke="#3b5bdb" stroke-width="1.5" stroke-linecap="round" opacity="0.6"/>

  <!-- Authority -->
  <rect x="44" y="172" width="282" height="44" rx="6" fill="#3b5bdb" opacity="0.04"/>
  <rect x="54" y="180" width="28" height="28" rx="6" fill="#3b5bdb" opacity="0.1"/>
  <text x="68" y="199" font-size="12" fill="#3b5bdb" text-anchor="middle" font-weight="700">⚙</text>
  <text x="92" y="192" font-size="12" fill="#0a0e1a" font-weight="700">Authority</text>
  <text x="92" y="208" font-size="8.5" fill="#6b7280">Confirmed role in purchasing decision</text>
  <rect x="286" y="186" width="32" height="18" rx="9" fill="#3b5bdb" opacity="0.12"/>
  <path d="M296 195 l3 3 l5-5" fill="none" stroke="#3b5bdb" stroke-width="1.5" stroke-linecap="round" opacity="0.6"/>

  <!-- Need -->
  <rect x="44" y="222" width="282" height="44" rx="6" fill="#3b5bdb" opacity="0.04"/>
  <rect x="54" y="230" width="28" height="28" rx="6" fill="#3b5bdb" opacity="0.1"/>
  <text x="68" y="249" font-size="12" fill="#3b5bdb" text-anchor="middle" font-weight="700">◎</text>
  <text x="92" y="242" font-size="12" fill="#0a0e1a" font-weight="700">Need</text>
  <text x="92" y="258" font-size="8.5" fill="#6b7280">Actively seeking solutions in your market</text>
  <rect x="286" y="236" width="32" height="18" rx="9" fill="#3b5bdb" opacity="0.12"/>
  <path d="M296 245 l3 3 l5-5" fill="none" stroke="#3b5bdb" stroke-width="1.5" stroke-linecap="round" opacity="0.6"/>

  <!-- Timing -->
  <rect x="44" y="272" width="282" height="44" rx="6" fill="#3b5bdb" opacity="0.04"/>
  <rect x="54" y="280" width="28" height="28" rx="6" fill="#3b5bdb" opacity="0.1"/>
  <text x="68" y="299" font-size="12" fill="#3b5bdb" text-anchor="middle" font-weight="700">⏱</text>
  <text x="92" y="292" font-size="12" fill="#0a0e1a" font-weight="700">Timing</text>
  <text x="92" y="308" font-size="8.5" fill="#6b7280">Purchase timeline within 6 months</text>
  <rect x="286" y="286" width="32" height="18" rx="9" fill="#3b5bdb" opacity="0.12"/>
  <path d="M296 295 l3 3 l5-5" fill="none" stroke="#3b5bdb" stroke-width="1.5" stroke-linecap="round" opacity="0.6"/>

  <!-- Right: Sales-Ready Output -->
  <rect x="352" y="68" width="178" height="140" rx="10" fill="#fff" filter="url(#ba2)"/>
  <text x="441" y="96" font-size="28" fill="#3b5bdb" text-anchor="middle" opacity="0.6">✓</text>
  <text x="441" y="124" font-size="14" fill="#0a0e1a" text-anchor="middle" font-weight="700">Sales-Ready</text>
  <text x="441" y="142" font-size="10" fill="#6b7280" text-anchor="middle">All 4 criteria confirmed</text>
  <line x1="370" y1="154" x2="512" y2="154" stroke="#e2e4e8" stroke-width="0.5"/>
  <text x="441" y="172" font-size="9" fill="#6b7280" text-anchor="middle">→ Direct to sales pipeline</text>
  <text x="441" y="188" font-size="9" fill="#6b7280" text-anchor="middle">→ Skip nurture entirely</text>

  <!-- Handoff arrow -->
  <line x1="340" y1="190" x2="352" y2="148" stroke="#3b5bdb" stroke-width="1.2" opacity="0.15"/>

  <!-- Open Field Intel card -->
  <rect x="352" y="220" width="178" height="100" rx="10" fill="#fff" filter="url(#ba2)"/>
  <text x="366" y="244" font-size="10" fill="#0a0e1a" font-weight="700">Open-Field Intel</text>
  <text x="366" y="260" font-size="8.5" fill="#6b7280">Free-text intelligence</text>
  <text x="366" y="274" font-size="8.5" fill="#6b7280">captured with each lead</text>
  <rect x="366" y="284" width="150" height="24" rx="4" fill="#0a0e1a" opacity="0.03"/>
  <text x="374" y="298" font-size="7.5" fill="#6b7280" font-style="italic">"Evaluating vendors for Q3...</text>
  <text x="374" y="310" font-size="7.5" fill="#6b7280" font-style="italic">budget approved, need POC..."</text>

  <!-- Bottom bar -->
  <rect x="30" y="334" width="500" height="44" rx="8" fill="#3b5bdb" opacity="0.03"/>
  <text x="280" y="354" font-size="9" fill="#0a0e1a" text-anchor="middle" font-weight="600">Coaching + scripting provided for BDR/sales follow-up</text>
  <text x="280" y="368" font-size="8" fill="#6b7280" text-anchor="middle">Custom BANT questions co-created · Digital + tele-touch qualification · Full campaign reporting</text>
</svg>
