<svg viewBox="0 0 560 400" xmlns="http://www.w3.org/2000/svg" font-family="'Segoe UI', system-ui, sans-serif">
  <defs>
    <filter id="eb1" x="-4%" y="-4%" width="108%" height="112%"><feDropShadow dx="0" dy="2" stdDeviation="6" flood-color="#0a0e1a" flood-opacity="0.06"/></filter>
    <filter id="eb2" x="-4%" y="-6%" width="108%" height="116%"><feDropShadow dx="0" dy="1" stdDeviation="2" flood-color="#0a0e1a" flood-opacity="0.06"/></filter>
    <marker id="ebArr" viewBox="0 0 8 8" refX="7" refY="4" markerWidth="5" markerHeight="5" orient="auto"><path d="M0 0 L8 4 L0 8z" fill="#3b5bdb" opacity="0.3"/></marker>
  </defs>
  <rect x="10" y="10" width="540" height="380" rx="16" fill="#f5f6f8" filter="url(#eb1)"/>
  <text x="40" y="46" font-size="13" font-weight="700" fill="#0a0e1a" letter-spacing="0.5">OPT-IN LEAD GENERATION</text>
  <line x1="40" y1="56" x2="520" y2="56" stroke="#e2e4e8" stroke-width="1"/>

  <!-- Column headers -->
  <text x="88" y="78" font-size="9" fill="#6b7280" font-weight="600" letter-spacing="0.5" text-anchor="middle">CONTENT</text>
  <text x="220" y="78" font-size="9" fill="#6b7280" font-weight="600" letter-spacing="0.5" text-anchor="middle">EMAIL OUTREACH</text>
  <text x="360" y="78" font-size="9" fill="#6b7280" font-weight="600" letter-spacing="0.5" text-anchor="middle">QUALIFICATION</text>
  <text x="490" y="78" font-size="9" fill="#6b7280" font-weight="600" letter-spacing="0.5" text-anchor="middle">DELIVERY</text>

  <!-- Flow arrows -->
  <line x1="145" y1="74" x2="168" y2="74" stroke="#3b5bdb" stroke-width="1.2" marker-end="url(#ebArr)" opacity="0.2"/>
  <line x1="280" y1="74" x2="303" y2="74" stroke="#3b5bdb" stroke-width="1.2" marker-end="url(#ebArr)" opacity="0.2"/>
  <line x1="420" y1="74" x2="443" y2="74" stroke="#3b5bdb" stroke-width="1.2" marker-end="url(#ebArr)" opacity="0.2"/>

  <!-- CONTENT column -->
  <rect x="30" y="90" width="116" height="230" rx="8" fill="#fff" filter="url(#eb2)"/>

  <rect x="42" y="102" width="92" height="30" rx="5" fill="#3b5bdb" opacity="0.04"/>
  <rect x="48" y="106" width="12" height="18" rx="2" fill="#0a0e1a"/>
  <rect x="51" y="110" width="6" height="2" rx="1" fill="#3b5bdb" opacity="0.6"/>
  <rect x="51" y="114" width="5" height="1.5" rx=".75" fill="#fff" opacity="0.2"/>
  <text x="66" y="118" font-size="9" fill="#0a0e1a" font-weight="600">eBooks</text>

  <rect x="42" y="136" width="92" height="30" rx="5" fill="transparent"/>
  <rect x="48" y="140" width="12" height="18" rx="2" fill="#0a0e1a" opacity="0.06"/>
  <rect x="51" y="144" width="6" height="2" rx="1" fill="#0a0e1a" opacity="0.1"/>
  <text x="66" y="152" font-size="9" fill="#0a0e1a" font-weight="600">Whitepapers</text>

  <rect x="42" y="170" width="92" height="30" rx="5" fill="#3b5bdb" opacity="0.04"/>
  <rect x="48" y="174" width="12" height="18" rx="2" fill="#3b5bdb" opacity="0.08"/>
  <circle cx="54" cy="182" r="3.5" fill="#3b5bdb" opacity="0.08"/>
  <polygon points="53,180 53,184 56,182" fill="#3b5bdb" opacity="0.3"/>
  <text x="66" y="186" font-size="9" fill="#0a0e1a" font-weight="600">Webinars</text>

  <rect x="42" y="204" width="92" height="30" rx="5" fill="transparent"/>
  <rect x="48" y="208" width="12" height="18" rx="2" fill="#0a0e1a" opacity="0.06"/>
  <rect x="51" y="212" width="6" height="2" rx="1" fill="#0a0e1a" opacity="0.1"/>
  <text x="66" y="220" font-size="9" fill="#0a0e1a" font-weight="600">Blogs</text>

  <rect x="42" y="238" width="92" height="30" rx="5" fill="#3b5bdb" opacity="0.04"/>
  <rect x="48" y="242" width="12" height="18" rx="2" fill="#3b5bdb" opacity="0.08"/>
  <text x="66" y="256" font-size="9" fill="#0a0e1a" font-weight="600">Reports</text>

  <text x="88" y="286" font-size="8" fill="#6b7280" text-anchor="middle">Your asset or</text>
  <text x="88" y="298" font-size="8" fill="#3b5bdb" text-anchor="middle" font-weight="600">one we create</text>

  <!-- EMAIL OUTREACH column -->
  <rect x="162" y="90" width="116" height="230" rx="8" fill="#fff" filter="url(#eb2)"/>

  <text x="220" y="112" font-size="9" fill="#0a0e1a" text-anchor="middle" font-weight="700">Email Nurture</text>

  <rect x="174" y="122" width="92" height="26" rx="5" fill="#3b5bdb" opacity="0.06"/>
  <rect x="180" y="128" width="10" height="7" rx="1.5" fill="#3b5bdb" opacity="0.15"/>
  <polyline points="180,128 185,132 190,128" fill="none" stroke="#3b5bdb" stroke-width="0.8" opacity="0.25"/>
  <text x="196" y="139" font-size="8" fill="#0a0e1a" font-weight="600">1: Asset offer</text>

  <line x1="220" y1="148" x2="220" y2="156" stroke="#3b5bdb" stroke-width="0.8" opacity="0.15"/>

  <rect x="174" y="156" width="92" height="26" rx="5" fill="#3b5bdb" opacity="0.04"/>
  <rect x="180" y="162" width="10" height="7" rx="1.5" fill="#3b5bdb" opacity="0.12"/>
  <polyline points="180,162 185,166 190,162" fill="none" stroke="#3b5bdb" stroke-width="0.8" opacity="0.2"/>
  <text x="196" y="173" font-size="8" fill="#0a0e1a" font-weight="600">2: Follow-up</text>

  <line x1="220" y1="182" x2="220" y2="190" stroke="#3b5bdb" stroke-width="0.8" opacity="0.15"/>

  <rect x="174" y="190" width="92" height="26" rx="5" fill="#3b5bdb" opacity="0.06"/>
  <rect x="180" y="196" width="10" height="7" rx="1.5" fill="#3b5bdb" opacity="0.15"/>
  <polyline points="180,196 185,200 190,196" fill="none" stroke="#3b5bdb" stroke-width="0.8" opacity="0.25"/>
  <text x="196" y="207" font-size="8" fill="#0a0e1a" font-weight="600">3: Re-engage</text>

  <text x="220" y="240" font-size="8" fill="#6b7280" text-anchor="middle">Sequenced email</text>
  <text x="220" y="252" font-size="8" fill="#6b7280" text-anchor="middle">campaigns to your</text>
  <text x="220" y="264" font-size="8" fill="#6b7280" text-anchor="middle">target buyer profile</text>

  <rect x="178" y="278" width="84" height="20" rx="10" fill="#3b5bdb" opacity="0.06"/>
  <text x="220" y="292" font-size="7.5" fill="#3b5bdb" text-anchor="middle" font-weight="600">48.5M opted-in pros</text>

  <!-- QUALIFICATION column -->
  <rect x="294" y="90" width="126" height="230" rx="8" fill="#fff" filter="url(#eb2)"/>
  <text x="357" y="112" font-size="9" fill="#0a0e1a" text-anchor="middle" font-weight="700">Buyer Criteria</text>

  <rect x="306" y="122" width="102" height="20" rx="4" fill="#3b5bdb" opacity="0.04"/>
  <rect x="310" y="126" width="8" height="8" rx="2" fill="#3b5bdb" opacity="0.15"/>
  <path d="M312 130 l2 2 l3-3" fill="none" stroke="#3b5bdb" stroke-width="1" stroke-linecap="round" opacity="0.5"/>
  <text x="324" y="136" font-size="8" fill="#0a0e1a">Job title / role</text>

  <rect x="306" y="148" width="102" height="20" rx="4" fill="transparent"/>
  <rect x="310" y="152" width="8" height="8" rx="2" fill="#3b5bdb" opacity="0.15"/>
  <path d="M312 156 l2 2 l3-3" fill="none" stroke="#3b5bdb" stroke-width="1" stroke-linecap="round" opacity="0.5"/>
  <text x="324" y="162" font-size="8" fill="#0a0e1a">Industry vertical</text>

  <rect x="306" y="174" width="102" height="20" rx="4" fill="#3b5bdb" opacity="0.04"/>
  <rect x="310" y="178" width="8" height="8" rx="2" fill="#3b5bdb" opacity="0.15"/>
  <path d="M312 182 l2 2 l3-3" fill="none" stroke="#3b5bdb" stroke-width="1" stroke-linecap="round" opacity="0.5"/>
  <text x="324" y="188" font-size="8" fill="#0a0e1a">Company size</text>

  <rect x="306" y="200" width="102" height="20" rx="4" fill="transparent"/>
  <rect x="310" y="204" width="8" height="8" rx="2" fill="#3b5bdb" opacity="0.15"/>
  <path d="M312 208 l2 2 l3-3" fill="none" stroke="#3b5bdb" stroke-width="1" stroke-linecap="round" opacity="0.5"/>
  <text x="324" y="214" font-size="8" fill="#0a0e1a">Geography</text>

  <rect x="306" y="226" width="102" height="20" rx="4" fill="#3b5bdb" opacity="0.04"/>
  <rect x="310" y="230" width="8" height="8" rx="2" fill="#3b5bdb" opacity="0.15"/>
  <path d="M312 234 l2 2 l3-3" fill="none" stroke="#3b5bdb" stroke-width="1" stroke-linecap="round" opacity="0.5"/>
  <text x="324" y="240" font-size="8" fill="#0a0e1a">Opt-in confirmed</text>

  <text x="357" y="272" font-size="8" fill="#6b7280" text-anchor="middle">Every lead verified</text>
  <text x="357" y="284" font-size="8" fill="#6b7280" text-anchor="middle">against your criteria</text>

  <!-- DELIVERY column -->
  <rect x="436" y="90" width="94" height="230" rx="8" fill="#fff" filter="url(#eb2)"/>

  <text x="483" y="116" font-size="28" fill="#0a0e1a" text-anchor="middle" font-weight="700">✓</text>
  <text x="483" y="140" font-size="10" fill="#0a0e1a" text-anchor="middle" font-weight="700">Opt-In</text>
  <text x="483" y="154" font-size="10" fill="#0a0e1a" text-anchor="middle" font-weight="700">Leads</text>

  <line x1="452" y1="168" x2="514" y2="168" stroke="#e2e4e8" stroke-width="0.5"/>

  <text x="483" y="190" font-size="9" fill="#6b7280" text-anchor="middle">Delivered to</text>
  <text x="483" y="204" font-size="9" fill="#6b7280" text-anchor="middle">your CRM</text>

  <line x1="452" y1="216" x2="514" y2="216" stroke="#e2e4e8" stroke-width="0.5"/>

  <text x="483" y="236" font-size="9" fill="#6b7280" text-anchor="middle">Branded</text>
  <text x="483" y="250" font-size="9" fill="#6b7280" text-anchor="middle">landing page</text>

  <line x1="452" y1="262" x2="514" y2="262" stroke="#e2e4e8" stroke-width="0.5"/>

  <text x="483" y="282" font-size="9" fill="#6b7280" text-anchor="middle">Campaign</text>
  <text x="483" y="296" font-size="9" fill="#6b7280" text-anchor="middle">reporting</text>

  <!-- Bottom bar -->
  <rect x="30" y="336" width="500" height="44" rx="8" fill="#3b5bdb" opacity="0.03"/>
  <text x="280" y="356" font-size="9" fill="#0a0e1a" text-anchor="middle" font-weight="600">Full-service program management</text>
  <text x="280" y="370" font-size="8" fill="#6b7280" text-anchor="middle">24–48hr launch · Dedicated QA · Reporting + ROI optimization</text>
</svg>
